<svg xmlns="http://www.w3.org/2000/svg" viewBox="0 0 64 64">
  <defs>
    <linearGradient id="bg" x1="10" y1="8" x2="54" y2="56" gradientUnits="userSpaceOnUse">
      <stop offset="0" stop-color="#1a1746" />
      <stop offset="1" stop-color="#080612" />
    </linearGradient>
  </defs>

  <rect x="2" y="2" width="60" height="60" rx="14" fill="url(#bg)" />
  <rect x="2.5" y="2.5" width="59" height="59" rx="13.5" fill="none" stroke="#ff8e36" stroke-opacity=".34" />

  <g transform="translate(16 16) scale(1.3333)">
    <path
      d="M4.5 16.5c-1.5 1.26-2 5-2 5s3.74-.5 5-2c.71-.84.7-2.13-.09-2.91a2.18 2.18 0 0 0-2.91-.09z"
      fill="none"
      stroke="#ff8e36"
      stroke-width="1.9"
      stroke-linecap="round"
      stroke-linejoin="round"
    />
    <path
      d="m12 15-3-3a22 22 0 0 1 2-3.95A12.88 12.88 0 0 1 22 2c0 2.72-.78 7.5-6 11a22.35 22.35 0 0 1-4 2z"
      fill="none"
      stroke="#ff8e36"
      stroke-width="1.9"
      stroke-linecap="round"
      stroke-linejoin="round"
    />
    <path
      d="M9 12H4s.55-3.03 2-4c1.62-1.08 5 0 5 0"
      fill="none"
      stroke="#ff8e36"
      stroke-width="1.9"
      stroke-linecap="round"
      stroke-linejoin="round"
    />
    <path
      d="M12 15v5s3.03-.55 4-2c1.08-1.62 0-5 0-5"
      fill="none"
      stroke="#ff8e36"
      stroke-width="1.9"
      stroke-linecap="round"
      stroke-linejoin="round"
    />
  </g>
</svg>
